<?xml version="1.0" encoding="utf-8"?>
<!-- Generator: Adobe Illustrator 22.0.1, SVG Export Plug-In . SVG Version: 6.00 Build 0)  -->
<svg version="1.1" id="Layer_3" xmlns="http://www.w3.org/2000/svg" xmlns:xlink="http://www.w3.org/1999/xlink" x="0px" y="0px"
	 viewBox="0 0 100.7 19" style="enable-background:new 0 0 100.7 19;" xml:space="preserve">
<style type="text/css">
	.st0{fill:#FFFFFF;}
</style>
<g>
	<g>
		<path class="st0" d="M29.9,11.8l-1.3-7.7h-1.8L29,14.3h1.7l2.2-10.2h-1.8L29.9,11.8z M33.9,14.3h4.3v-1.4h-2.7v-3h2.3V8.4h-2.3
			V5.5h2.7V4.1h-4.3V14.3z M42.5,12.6c-0.1,0.2-0.4,0.4-0.8,0.4c-0.4,0-0.6-0.2-0.8-0.4c-0.3-0.5-0.4-1.5-0.4-3.4
			c0-1.9,0.1-2.9,0.4-3.4c0.1-0.2,0.4-0.4,0.8-0.4c0.4,0,0.6,0.1,0.7,0.4c0.2,0.3,0.2,0.6,0.2,1h1.6c0-0.9-0.3-1.7-0.8-2.1
			c-0.5-0.4-1-0.7-1.8-0.7c-1,0-1.5,0.4-2,0.9c-0.8,0.9-0.7,2.4-0.7,4.4s0,3.5,0.7,4.3c0.4,0.5,1,0.9,2,0.9c0.8,0,1.3-0.2,1.8-0.6
			c0.5-0.5,0.8-1.3,0.8-2.2h-1.6C42.8,12,42.7,12.3,42.5,12.6z M44.9,5.5h1.7v8.7h1.6V5.5H50V4.1h-5V5.5z M53.1,14.4
			c1,0,1.5-0.4,2-0.9c0.8-0.9,0.7-2.3,0.7-4.4c0-2,0-3.5-0.7-4.4c-0.4-0.5-1-0.9-2-0.9s-1.5,0.4-2,0.9c-0.8,0.9-0.7,2.3-0.7,4.4
			c0,2,0,3.5,0.7,4.4C51.6,14,52.2,14.4,53.1,14.4z M52.4,5.8c0.1-0.2,0.4-0.4,0.8-0.4c0.4,0,0.6,0.2,0.8,0.4
			c0.3,0.5,0.3,1.5,0.3,3.4c0,1.9,0,2.9-0.3,3.4c-0.1,0.2-0.4,0.4-0.8,0.4c-0.4,0-0.6-0.2-0.8-0.4c-0.3-0.5-0.4-1.5-0.4-3.4
			C52,7.3,52.1,6.3,52.4,5.8z M62.3,7.1c0-2.1-0.7-3-2.6-3h-2.6v10.2h1.6v-4.2h0.9l1.3,4.2h1.7l-1.5-4.5C62.1,9.3,62.3,8.4,62.3,7.1
			z M59.7,8.7h-1V5.5h1c0.9,0,1,0.7,1,1.6C60.7,7.9,60.6,8.7,59.7,8.7z M73.1,4.1h-1.8l-1,7.7L69,4.1h-1.8l-1.4,7.7l-1-7.7H63
			L65,14.3h1.7l1.4-7.7l1.5,7.7h1.7L73.1,4.1z M78.4,13.5c0.8-0.9,0.7-2.3,0.7-4.4c0-2,0-3.5-0.7-4.4c-0.4-0.5-1-0.9-2-0.9
			c-1,0-1.5,0.4-2,0.9c-0.8,0.9-0.7,2.3-0.7,4.4c0,2,0,3.5,0.7,4.4c0.4,0.5,1,0.9,2,0.9C77.4,14.4,78,14,78.4,13.5z M75.7,12.6
			c-0.3-0.5-0.4-1.5-0.4-3.4c0-1.9,0.1-2.9,0.4-3.4c0.1-0.2,0.4-0.4,0.8-0.4c0.4,0,0.6,0.2,0.8,0.4c0.3,0.5,0.3,1.5,0.3,3.4
			c0,1.9,0,2.9-0.3,3.4C77,12.8,76.8,13,76.4,13C76,13,75.8,12.8,75.7,12.6z M85.6,7.1c0-2.1-0.7-3-2.6-3h-2.6v10.2H82v-4.2h0.9
			l1.3,4.2h1.7l-1.5-4.5C85.3,9.3,85.6,8.4,85.6,7.1z M83,8.7h-1V5.5h1c0.9,0,1,0.7,1,1.6C84,7.9,83.9,8.7,83,8.7z M91.1,14.3h1.7
			l-2.4-6l2-4.2h-1.6l-2.2,4.8V4.1h-1.6v10.2h1.6v-2.6l0.8-1.6L91.1,14.3z M97.7,13.7c0.5-0.5,0.7-1.2,0.7-2.2
			c0-1.7-0.3-2.4-1.5-2.9l-1.2-0.5c-0.7-0.3-0.8-0.5-0.8-1.4c0-0.4,0.1-0.8,0.3-1c0.2-0.2,0.4-0.3,0.7-0.3c0.3,0,0.6,0.1,0.7,0.3
			c0.2,0.3,0.2,0.6,0.2,1.1h1.6c0-1-0.2-1.7-0.7-2.2c-0.4-0.4-1-0.6-1.8-0.6C95,4,94.4,4.2,94,4.6c-0.6,0.5-0.8,1.2-0.8,2.2
			c0,1.6,0.4,2.1,1.4,2.6l1.2,0.5c0.8,0.3,1,0.6,1,1.7c0,0.5-0.1,0.9-0.3,1.1c-0.2,0.2-0.4,0.3-0.8,0.3c-0.4,0-0.6-0.1-0.7-0.3
			c-0.2-0.3-0.3-0.6-0.3-1.1h-1.6c0,1.1,0.2,1.7,0.7,2.2c0.4,0.4,1.1,0.7,2,0.7C96.6,14.4,97.3,14.1,97.7,13.7z M21.3,18.4h0.4V0
			h-0.4V18.4z M8.2,1C3.7,1,0,4.7,0,9.2c0,4.5,3.7,8.2,8.2,8.2c4.5,0,8.2-3.7,8.2-8.2C16.3,4.7,12.7,1,8.2,1z M8.2,16.5
			c-4,0-7.3-3.3-7.3-7.3c0-4,3.3-7.3,7.3-7.3c4,0,7.3,3.3,7.3,7.3C15.4,13.2,12.2,16.5,8.2,16.5z M6,6.1H4.4c-0.1,0-0.1,0.1-0.1,0.1
			l3,7.3c0,0.1,0.1,0.1,0.2,0.1h1.3C9,13.7,9,13.6,9,13.5L6,6.1C6.1,6.2,6,6.1,6,6.1z M11.9,6.1h-1.5c0,0-0.1,0-0.1,0.1L9.1,9.1
			c0,0.1,0,0.2,0,0.3l0.7,1.7c0,0.1,0.2,0.1,0.2,0l2-4.8C12,6.2,12,6.1,11.9,6.1z M99.8,4.1C99.4,4.1,99,4.5,99,5s0.4,0.9,0.9,0.9
			s0.9-0.4,0.9-0.9S100.3,4.1,99.8,4.1z M99.8,5.7c-0.4,0-0.7-0.3-0.7-0.8s0.3-0.8,0.7-0.8s0.7,0.3,0.7,0.8S100.3,5.7,99.8,5.7z
			 M100.2,4.8c0-0.2-0.1-0.3-0.3-0.3h-0.3v1h0.1V5.1h0.2l0.2,0.4h0.1L100,5C100.1,5,100.2,4.9,100.2,4.8z M99.7,5V4.6h0.2
			c0.1,0,0.2,0.1,0.2,0.2S100,5,99.9,5H99.7z M51.9,16.5L51,18.9h0.5l0.2-0.5h1l0.2,0.5h0.5l-1-2.4H51.9z M51.9,17.9l0.3-0.9
			l0.3,0.9H51.9z M56.2,18.1l-1-1.6h-0.5v2.4h0.4v-1.6l1,1.6h0.5v-2.4h-0.4V18.1z M57.8,17.8H59v-0.4h-1.2v-0.5h1.3v-0.4h-1.8v2.4
			h1.8v-0.4h-1.3V17.8z M60.9,18.1l-0.4-1.6h-0.7v2.4h0.4V17l0.5,1.9h0.5l0.5-1.9v1.9H62v-2.4h-0.7L60.9,18.1z M63.2,17.8h1.2v-0.4
			h-1.2v-0.5h1.3v-0.4h-1.8v2.4h1.8v-0.4h-1.3V17.8z M64.9,16.9h0.7v2h0.5v-2h0.7v-0.4h-1.9V16.9z M68.7,17.6
			c-0.1-0.1-0.3-0.1-0.5-0.2c-0.2-0.1-0.4-0.1-0.4-0.2c0,0-0.1-0.1-0.1-0.1c0-0.1,0-0.1,0.1-0.1c0.1-0.1,0.2-0.1,0.3-0.1
			c0.1,0,0.2,0,0.3,0.1c0.1,0.1,0.1,0.1,0.1,0.3l0.5,0c0-0.2-0.1-0.4-0.2-0.5c-0.2-0.1-0.4-0.2-0.7-0.2c-0.2,0-0.3,0-0.5,0.1
			c-0.1,0.1-0.2,0.1-0.3,0.2c-0.1,0.1-0.1,0.2-0.1,0.3c0,0.2,0.1,0.3,0.2,0.5c0.1,0.1,0.3,0.2,0.5,0.2c0.2,0,0.3,0.1,0.4,0.1
			c0.1,0,0.1,0.1,0.2,0.1c0,0,0,0.1,0,0.1c0,0.1,0,0.2-0.1,0.2c-0.1,0.1-0.2,0.1-0.4,0.1c-0.1,0-0.3,0-0.3-0.1
			c-0.1-0.1-0.1-0.2-0.2-0.3l-0.5,0c0,0.3,0.1,0.5,0.3,0.6c0.2,0.1,0.4,0.2,0.7,0.2c0.2,0,0.4,0,0.5-0.1c0.1-0.1,0.2-0.1,0.3-0.3
			c0.1-0.1,0.1-0.2,0.1-0.4c0-0.2,0-0.3-0.1-0.4C68.9,17.7,68.8,17.6,68.7,17.6z M71,18.4c-0.1,0.1-0.2,0.1-0.3,0.1
			c-0.2,0-0.3-0.1-0.4-0.2c-0.1-0.1-0.2-0.3-0.2-0.6c0-0.3,0.1-0.5,0.2-0.6s0.3-0.2,0.4-0.2c0.1,0,0.2,0,0.3,0.1
			c0.1,0.1,0.1,0.2,0.2,0.3l0.5-0.1c-0.1-0.2-0.1-0.3-0.2-0.4c-0.2-0.2-0.4-0.3-0.7-0.3c-0.3,0-0.6,0.1-0.8,0.3
			c-0.2,0.2-0.3,0.5-0.3,0.9c0,0.4,0.1,0.7,0.3,0.9c0.2,0.2,0.5,0.3,0.8,0.3c0.3,0,0.5-0.1,0.6-0.2c0.2-0.1,0.3-0.3,0.4-0.6L71.2,18
			C71.1,18.2,71.1,18.3,71,18.4z M73.7,17.4h-0.9v-0.9h-0.5v2.4h0.5v-1h0.9v1h0.5v-2.4h-0.5V17.4z M75.3,17.8h1.2v-0.4h-1.2v-0.5
			h1.3v-0.4h-1.8v2.4h1.8v-0.4h-1.3V17.8z M79.3,16.5h-0.6l-1,1.1v-1.1h-0.5v2.4h0.5v-0.7l0.4-0.4l0.7,1.1h0.6l-0.9-1.5L79.3,16.5z
			 M82.2,18.4c-0.1,0.1-0.2,0.1-0.3,0.1c-0.2,0-0.3-0.1-0.4-0.2c-0.1-0.1-0.2-0.3-0.2-0.6c0-0.3,0.1-0.5,0.2-0.6
			c0.1-0.1,0.3-0.2,0.4-0.2c0.1,0,0.2,0,0.3,0.1c0.1,0.1,0.1,0.2,0.2,0.3l0.5-0.1c-0.1-0.2-0.1-0.3-0.2-0.4
			c-0.2-0.2-0.4-0.3-0.7-0.3c-0.3,0-0.6,0.1-0.8,0.3c-0.2,0.2-0.3,0.5-0.3,0.9c0,0.4,0.1,0.7,0.3,0.9c0.2,0.2,0.5,0.3,0.8,0.3
			c0.3,0,0.5-0.1,0.6-0.2c0.2-0.1,0.3-0.3,0.4-0.6L82.4,18C82.3,18.2,82.3,18.3,82.2,18.4z M84.5,16.5c-0.2,0-0.4,0-0.5,0.1
			c-0.1,0-0.2,0.1-0.3,0.2c-0.1,0.1-0.2,0.2-0.2,0.3c-0.1,0.2-0.1,0.4-0.1,0.6c0,0.4,0.1,0.7,0.3,0.9c0.2,0.2,0.5,0.3,0.8,0.3
			c0.4,0,0.6-0.1,0.8-0.3c0.2-0.2,0.3-0.5,0.3-0.9c0-0.4-0.1-0.7-0.3-0.9C85.1,16.6,84.8,16.5,84.5,16.5z M85,18.3
			c-0.1,0.1-0.3,0.2-0.5,0.2c-0.2,0-0.4-0.1-0.5-0.2c-0.1-0.1-0.2-0.3-0.2-0.6c0-0.3,0.1-0.5,0.2-0.6c0.1-0.1,0.3-0.2,0.5-0.2
			c0.2,0,0.4,0.1,0.5,0.2c0.1,0.1,0.2,0.3,0.2,0.6C85.1,18,85.1,18.2,85,18.3z M87.3,18.1l-0.4-1.6h-0.7v2.4h0.4V17l0.5,1.9h0.5
			L88,17v1.9h0.4v-2.4h-0.7L87.3,18.1z M90.5,16.5c-0.1,0-0.3,0-0.6,0h-0.8v2.4h0.5V18h0.3c0.2,0,0.4,0,0.5,0c0.1,0,0.2-0.1,0.2-0.1
			c0.1-0.1,0.1-0.1,0.2-0.2c0.1-0.1,0.1-0.2,0.1-0.4c0-0.2,0-0.3-0.1-0.5C90.7,16.7,90.6,16.6,90.5,16.5z M90.4,17.4
			c0,0.1-0.1,0.1-0.2,0.1c-0.1,0-0.2,0-0.4,0h-0.3v-0.7h0.2c0.2,0,0.3,0,0.3,0c0.1,0,0.1,0,0.2,0.1c0.1,0.1,0.1,0.1,0.1,0.2
			C90.5,17.3,90.4,17.4,90.4,17.4z M91.9,16.5L91,18.9h0.5l0.2-0.5h1l0.2,0.5h0.5l-1-2.4H91.9z M91.9,17.9l0.3-0.9l0.3,0.9H91.9z
			 M95.3,18.1l-1-1.6h-0.5v2.4h0.4v-1.6l1,1.6h0.5v-2.4h-0.4V18.1z M97.3,17.5l-0.6-0.9h-0.6l0.9,1.4v1h0.5v-1l0.9-1.4h-0.6
			L97.3,17.5z"/>
	</g>
</g>
</svg>
