<?xml version="1.0" encoding="utf-8"?>
<!-- Generator: Adobe Illustrator 16.0.0, SVG Export Plug-In . SVG Version: 6.00 Build 0)  -->
<!DOCTYPE svg PUBLIC "-//W3C//DTD SVG 1.1//EN" "http://www.w3.org/Graphics/SVG/1.1/DTD/svg11.dtd">
<svg version="1.1" id="Capa_1" xmlns="http://www.w3.org/2000/svg" xmlns:xlink="http://www.w3.org/1999/xlink" x="0px" y="0px"
	 width="100px" height="24.097px" viewBox="0 0 100 24.097" enable-background="new 0 0 100 24.097" xml:space="preserve">
<g>
	<rect x="1.273" y="1.355" fill="none" stroke="#FFFFFF" stroke-miterlimit="10" width="21.214" height="21.213"/>
	<polyline fill="#FFFFFF" points="9.272,5.361 15.872,11.961 9.272,18.56 	"/>
	<g>
		<path fill="#FFFFFF" d="M32.514,3.713l3.213,14.641L38.94,3.713h0.973l-3.439,15.84h-1.539L31.45,3.713H32.514z"/>
		<path fill="#FFFFFF" d="M46.86,11.045v0.95h-4.322v6.608h5.205v0.95h-6.246V3.713h6.246v0.951h-5.205v6.381H46.86z"/>
		<path fill="#FFFFFF" d="M52.744,3.713c2.421,0,3.395,1.335,3.395,3.576v1.38c0,1.855-0.725,2.919-2.286,3.281
			c1.63,0.362,2.286,1.517,2.286,3.236v2.467c0,0.656,0.045,1.38,0.385,1.9h-1.087c-0.271-0.476-0.339-1.041-0.339-1.9v-2.489
			c0-2.104-1.154-2.693-2.965-2.693h-1.651v7.083H49.44V3.713H52.744z M52.156,11.52c1.855,0,2.941-0.521,2.941-2.647V7.379
			c0-1.697-0.656-2.715-2.376-2.715h-2.24v6.856H52.156z"/>
		<path fill="#FFFFFF" d="M62.52,3.713l3.214,14.641l3.213-14.641h0.973l-3.439,15.84h-1.538l-3.485-15.84H62.52z"/>
		<path fill="#FFFFFF" d="M72.545,3.713v15.84h-1.041V3.713H72.545z"/>
		<path fill="#FFFFFF" d="M77.839,3.713c2.444,0,3.508,1.607,3.508,3.938v7.965c0,2.331-1.063,3.938-3.508,3.938h-3.484V3.713
			H77.839z M77.816,18.603c1.766,0,2.489-1.199,2.489-2.942V7.605c0-1.742-0.747-2.941-2.489-2.941h-2.421v13.939H77.816z"/>
		<path fill="#FFFFFF" d="M88.43,11.045v0.95h-4.322v6.608h5.204v0.95h-6.245V3.713h6.245v0.951h-5.204v6.381H88.43z"/>
		<path fill="#FFFFFF" d="M90.941,7.583c0-2.308,1.063-4.005,3.463-4.005c2.443,0,3.507,1.697,3.507,4.005v8.102
			c0,2.308-1.063,4.005-3.507,4.005c-2.399,0-3.463-1.697-3.463-4.005V7.583z M91.982,15.751c0,1.72,0.679,2.987,2.422,2.987
			c1.765,0,2.466-1.268,2.466-2.987V7.515c0-1.72-0.701-2.987-2.466-2.987c-1.743,0-2.422,1.267-2.422,2.987V15.751z"/>
	</g>
</g>
</svg>
