<?xml version="1.0" encoding="utf-8"?>
<!-- Generator: Adobe Illustrator 16.0.0, SVG Export Plug-In . SVG Version: 6.00 Build 0)  -->
<!DOCTYPE svg PUBLIC "-//W3C//DTD SVG 1.1//EN" "http://www.w3.org/Graphics/SVG/1.1/DTD/svg11.dtd">
<svg version="1.1" id="Capa_1" xmlns="http://www.w3.org/2000/svg" xmlns:xlink="http://www.w3.org/1999/xlink" x="0px" y="0px"
	 width="79.5px" height="118.5px" viewBox="0 0 79.5 118.5" enable-background="new 0 0 79.5 118.5" xml:space="preserve">
<g>
	<path fill="#FFFFFF" d="M33.784,9.825c-2.605,0-4.243,1.415-4.243,5.137v5.583h-7.743v-5.062c0-8.338,4.169-13.103,12.209-13.103
		c8.04,0,12.209,4.765,12.209,13.103c0,16.378-16.304,22.483-16.304,31.044c0,0.372,0,0.745,0.074,1.117h15.485v7.445H21.798v-6.402
		c0-15.336,16.229-17.868,16.229-32.906C38.028,11.091,36.39,9.825,33.784,9.825z"/>
	<path fill="#FFFFFF" d="M50.607,15.483C50.607,7.145,55,2.38,63.04,2.38c8.041,0,12.434,4.765,12.434,13.103v27.099
		c0,8.338-4.393,13.103-12.434,13.103c-8.04,0-12.433-4.765-12.433-13.103V15.483z M58.797,43.104c0,3.722,1.638,5.137,4.243,5.137
		c2.606,0,4.244-1.415,4.244-5.137V14.962c0-3.722-1.638-5.137-4.244-5.137c-2.605,0-4.243,1.415-4.243,5.137V43.104z"/>
</g>
<g>
	<path fill="#FFFFFF" d="M33.784,70.327c-2.605,0-4.243,1.414-4.243,5.137v5.583h-7.743v-5.063c0-8.338,4.169-13.103,12.209-13.103
		c8.04,0,12.209,4.765,12.209,13.103c0,16.379-16.304,22.483-16.304,31.045c0,0.372,0,0.744,0.074,1.117h15.485v7.444H21.798v-6.402
		c0-15.336,16.229-17.867,16.229-32.906C38.028,71.592,36.39,70.327,33.784,70.327z"/>
	<path fill="#FFFFFF" d="M50.607,75.984c0-8.338,4.393-13.103,12.433-13.103c8.041,0,12.434,4.765,12.434,13.103v27.1
		c0,8.338-4.393,13.103-12.434,13.103c-8.04,0-12.433-4.765-12.433-13.103V75.984z M58.797,103.604c0,3.723,1.638,5.137,4.243,5.137
		c2.606,0,4.244-1.414,4.244-5.137V75.464c0-3.723-1.638-5.137-4.244-5.137c-2.605,0-4.243,1.414-4.243,5.137V103.604z"/>
</g>
<g>
	<path fill="#FFFFFF" d="M11.537,109.585l3.91-26.573h4.7l-5.026,32.577H7.488L2.462,83.012h5.166L11.537,109.585z"/>
</g>
</svg>
